<?xml version="1.0" encoding="UTF-8"?><svg id="Calque_1" xmlns="http://www.w3.org/2000/svg" viewBox="0 0 1000 519.84"><defs><style>.cls-1{fill:#333;}.cls-2{fill:#9689eb;}.cls-3{fill:#f2b705;}.cls-4{fill:#6c5bd9;}</style></defs><g><path class="cls-1" d="M81.92,343.94c-5.75,0-10.59-.91-14.52-2.72-3.93-1.82-7.07-4.35-9.41-7.6-2.35-3.25-4.05-7.18-5.1-11.79-1.06-4.61-1.59-9.79-1.59-15.54v-124.08h33.35v125.44c0,3.48,.64,5.9,1.93,7.26,1.28,1.36,2.61,2.04,3.97,2.04h1.93c.53,0,1.25-.15,2.16-.45l4.08,24.73c-1.82,.76-4.12,1.4-6.92,1.93-2.8,.53-6.09,.79-9.87,.79Z"/><path class="cls-1" d="M166.53,343.94c-8.02,0-15.5-1.32-22.46-3.97-6.96-2.64-13.01-6.5-18.15-11.57-5.14-5.07-9.15-11.23-12.02-18.49-2.87-7.26-4.31-15.57-4.31-24.95s1.51-17.28,4.54-24.61c3.02-7.33,6.99-13.53,11.91-18.6,4.91-5.07,10.55-8.96,16.9-11.68,6.35-2.72,12.93-4.08,19.74-4.08,8.01,0,15.01,1.36,20.98,4.08,5.97,2.72,10.96,6.5,14.97,11.34,4,4.84,6.99,10.55,8.96,17.13,1.96,6.58,2.95,13.72,2.95,21.44,0,3.03-.15,5.9-.45,8.62-.3,2.72-.61,4.76-.91,6.13h-67.37c1.51,8.17,4.88,14.18,10.09,18.03,5.22,3.86,11.6,5.78,19.17,5.78,8.01,0,16.11-2.5,24.27-7.49l11.11,20.19c-5.75,3.93-12.14,7.03-19.17,9.3-7.03,2.27-13.95,3.4-20.76,3.4Zm-24.95-71.23h40.6c0-6.35-1.44-11.49-4.31-15.43-2.88-3.93-7.71-5.9-14.52-5.9-5.3,0-9.95,1.74-13.95,5.22-4.01,3.48-6.62,8.85-7.83,16.11Z"/><path class="cls-1" d="M361.83,341.2c1.22,.09,2.82-.54,4-.77,7.83-1.52,13.84-2.28,21.9-1.38q6.38,.71,11.54,2.18l-33.57-59.21c8.01-3.48,14.4-8.73,19.17-15.77,4.76-7.03,7.15-15.99,7.15-26.88,0-8.77-1.51-16.11-4.54-22-3.03-5.9-7.11-10.62-12.25-14.18-5.14-3.55-11.15-6.09-18.03-7.6-6.88-1.51-14.25-2.27-22.12-2.27h-53.31v147.9s2.53,0,2.53,0c.67-6.44,6.84-11.85,12.45-14.37,5.69-2.57,12.17-3.07,18.34-2.15,.14-12.26,.02-24.52,.02-36.78h18.37s28.26,53.13,28.34,53.28Zm-46.72-79.83v-41.51h17.24c8.77,0,15.46,1.44,20.08,4.31,4.61,2.87,6.92,7.94,6.92,15.2s-2.31,12.74-6.92,16.45c-4.62,3.71-11.31,5.56-20.08,5.56h-17.24Z"/><path class="cls-1" d="M514.28,259.9c-3.03-7.33-7.07-13.5-12.14-18.49-5.07-4.99-10.89-8.81-17.47-11.45-6.58-2.64-13.42-3.97-20.53-3.97s-13.99,1.33-20.64,3.97c-6.66,2.65-12.51,6.46-17.58,11.45-5.07,4.99-9.11,11.15-12.13,18.49-3.03,7.34-4.54,15.69-4.54,25.07s1.51,17.73,4.54,25.07c3.02,7.34,7.07,13.5,12.13,18.49,5.07,4.99,10.92,8.81,17.58,11.46,1.72,.68,3.45,1.27,5.2,1.78-.42-9.37,.31-18.96,2.46-30.27-.43-.57-2.17-2.51-2.56-3.15-3.4-5.75-5.1-13.53-5.1-23.36s1.7-17.62,5.1-23.36c3.4-5.75,8.58-8.62,15.54-8.62s11.94,2.87,15.43,8.62c3.48,5.75,5.22,13.54,5.22,23.36,0,7.28-.96,13.42-2.86,18.46,5.21,13.97,2.71,25.95,1.88,37.83,5.31-2.54,14.09-8.55,18.34-12.73,5.06-4.99,9.11-11.15,12.14-18.49,3.02-7.33,4.54-15.69,4.54-25.07s-1.51-17.73-4.54-25.07Z"/><path class="cls-1" d="M614.77,308.78c-3.03,2.27-6.24,4.2-9.64,5.78-3.4,1.59-6.92,2.38-10.55,2.38-7.26,0-13.27-2.87-18.03-8.62-4.76-5.75-7.15-13.53-7.15-23.36s2.34-17.62,7.03-23.36c4.69-5.75,11.12-8.62,19.28-8.62,4.84,0,9.9,2.19,15.2,6.58l15.65-21.55c-4.24-3.48-9.04-6.35-14.4-8.62-5.37-2.27-11.53-3.4-18.49-3.4-7.71,0-15.12,1.33-22.23,3.97-7.11,2.65-13.35,6.46-18.71,11.45-5.37,4.99-9.64,11.15-12.82,18.49-3.18,7.34-4.76,15.69-4.76,25.07,0,5.6,.52,10.82,1.55,15.69,6.81-2.8,17.16-6.82,22.06-.34,2.04,2.69,2.31,6.43,.78,9.42-.87,1.7-2.15,3.15-3.43,4.58-2.89,3.21-5.85,6.39-9.35,8.93-.18,.13,4.12,4.9,4.49,5.27,4.99,4.99,10.85,8.81,17.58,11.46,6.73,2.64,14.03,3.97,21.89,3.97,6.2,0,12.55-1.02,19.05-3.06,6.5-2.04,12.55-5.48,18.15-10.32l-13.16-21.78Z"/><path class="cls-1" d="M740.78,238.01c-5.52-8.01-14.4-12.02-26.65-12.02-7.71,0-14.37,1.63-19.96,4.88-5.6,3.25-10.51,6.77-14.75,10.55l1.59-20.19v-39.02h-33.35v159.02h14.06c.16-2.78,4.52-5.87,7.2-6.97,4.3-1.77,5.79-1.21,12.08-1.76v-67.26c3.63-3.48,6.95-6.16,9.98-8.05,3.02-1.89,6.65-2.84,10.89-2.84,4.84,0,8.35,1.51,10.55,4.54,2.19,3.03,3.29,8.62,3.29,16.79v32.8c8.91-2.13,18.24-.37,19.96,10.93,1.26,8.25-1.78,16.13-7.23,21.83h20.61v-69.87c0-14.21-2.76-25.33-8.28-33.35Z"/><path class="cls-1" d="M827.54,343.94c-8.02,0-15.5-1.32-22.46-3.97-6.96-2.64-13.01-6.5-18.15-11.57-5.14-5.07-9.15-11.23-12.02-18.49-2.87-7.26-4.31-15.57-4.31-24.95s1.51-17.28,4.54-24.61c3.02-7.33,6.99-13.53,11.91-18.6,4.91-5.07,10.55-8.96,16.9-11.68,6.35-2.72,12.93-4.08,19.74-4.08,8.01,0,15.01,1.36,20.98,4.08,5.97,2.72,10.96,6.5,14.97,11.34,4.01,4.84,6.99,10.55,8.96,17.13,1.96,6.58,2.95,13.72,2.95,21.44,0,3.03-.15,5.9-.45,8.62-.3,2.72-.61,4.76-.91,6.13h-67.37c1.51,8.17,4.88,14.18,10.09,18.03,5.22,3.86,11.6,5.78,19.17,5.78,8.01,0,16.11-2.5,24.27-7.49l11.11,20.19c-5.75,3.93-12.14,7.03-19.17,9.3-7.03,2.27-13.95,3.4-20.76,3.4Zm-24.95-71.23h40.6c0-6.35-1.44-11.49-4.31-15.43-2.88-3.93-7.71-5.9-14.52-5.9-5.3,0-9.95,1.74-13.95,5.22-4.01,3.48-6.62,8.85-7.83,16.11Z"/><path class="cls-1" d="M894.68,341.22v-112.51h27.22l2.27,19.73h.91c4.08-7.71,9-13.38,14.74-17.01,5.75-3.63,11.49-5.44,17.24-5.44,3.18,0,5.78,.19,7.82,.57,2.04,.38,3.89,.95,5.56,1.7l-5.44,28.81c-2.12-.6-4.08-1.06-5.9-1.36-1.82-.3-3.94-.45-6.35-.45-4.24,0-8.66,1.51-13.27,4.54-4.62,3.03-8.43,8.39-11.46,16.11v65.33h-33.35Z"/></g><g><path class="cls-4" d="M219.8,461.2c-1.45,1.63-3.41,2.96-5.89,3.98-2.48,1.02-4.8,1.54-6.97,1.54-3.5,0-5.5-1.09-5.98-3.26-4.35-17.27-7.55-37.79-9.6-61.58-10.87-.12-21.68,.91-32.42,3.08-11.35,18.96-21.92,36.41-31.7,52.35-.97,1.69-2.99,3.11-6.07,4.26-3.08,1.15-5.95,1.72-8.6,1.72-3.38,0-5.07-.91-5.07-2.72,0-.72,.24-1.51,.72-2.36,9.66-16.9,18.59-32.36,26.81-46.37l-3.08,1.09c-1.93,.72-3.69,1.09-5.25,1.09s-2.81-.36-3.71-1.09c-.91-.72-1.36-1.63-1.36-2.72,0-1.21,.57-2.45,1.72-3.71s2.81-2.38,4.98-3.35c5.67-2.54,10.75-4.53,15.21-5.98,6.52-11.23,13.46-23.97,20.83-38.22,8.45-16.3,15.58-29.04,21.37-38.22,.36-.48,.84-.96,1.45-1.45l-.18-.91c0-2.17,1.54-4.13,4.62-5.89,3.08-1.75,6.19-2.63,9.33-2.63,3.86,0,5.86,1.45,5.98,4.35l.54,12.14c1.09,29.1,2.5,53.58,4.26,73.45,1.75,19.86,4.92,38.61,9.51,56.24,.48,1.81,0,3.53-1.45,5.16Zm-29.34-71.82l-1.81-42.2c-2.9,5.19-7.01,13.53-12.32,25-4.59,9.78-7.67,16.12-9.24,19.02,8.45-1.21,16.24-1.81,23.36-1.81Z"/><path class="cls-4" d="M298.42,335.13c2.54-1.27,5.07-1.9,7.61-1.9,3.62,0,5.43,1.27,5.43,3.8,0,.36-.12,1.03-.36,1.99-5.19,17.63-9.78,31.09-13.76,40.39-.72,1.81-2.39,3.35-4.98,4.62-2.6,1.27-5.16,1.9-7.7,1.9-3.02,0-4.77-1.02-5.25-3.08-2.17-9.66-5.56-14.49-10.14-14.49-2.17,0-4.59,1.15-7.24,3.44-5.8,5.32-10.36,12.5-13.68,21.55-3.32,9.06-4.98,17.69-4.98,25.9,0,6.04,1.02,11.44,3.08,16.21,2.05,4.77,5.49,7.76,10.32,8.97,.72,.24,1.87,.36,3.44,.36,3.98,0,7.94-1.48,11.86-4.44,3.92-2.96,7.15-6.04,9.69-9.24,2.54-3.2,5.8-7.58,9.78-13.13,.97-1.33,2.47-2.38,4.53-3.17,2.05-.78,4.1-1.18,6.16-1.18,1.93,0,3.47,.33,4.62,1,1.15,.67,1.72,1.66,1.72,2.99,0,1.21-.43,2.48-1.27,3.8-6.4,10.02-14.19,18.69-23.37,25.99-9.18,7.31-18.84,10.96-28.98,10.96-2.06,0-4.11-.18-6.16-.54-8.09-1.33-14.13-5.28-18.11-11.86-3.98-6.58-5.98-14.22-5.98-22.91,0-3.14,.3-6.52,.91-10.14,1.93-11.59,5.8-22.43,11.59-32.51,5.8-10.08,13.4-17.48,22.82-22.19,4.71-2.29,9.42-3.44,14.13-3.44,4.47,0,8.57,1.21,12.32,3.62l7.25-18.84c.6-1.69,2.17-3.17,4.71-4.44Z"/><path class="cls-4" d="M387.08,349.44c1.87,2.72,2.81,6.67,2.81,11.86l-.18,5.07c-.48,8.82-1.57,21.74-3.26,38.76-.36,2.42-.79,6.46-1.27,12.13-.48,3.5-.91,6.34-1.27,8.51,1.33,.72,1.99,1.69,1.99,2.9,0,.85-.43,2.11-1.27,3.8l-.72,.91-1.09,1.09c-.85,6.16-1.27,11.41-1.27,15.76,1.69,.97,2.54,2.12,2.54,3.44,0,2.05-1.51,4.23-4.53,6.52-.85,.61-1.81,1.21-2.9,1.81-.85,.48-2.02,.9-3.53,1.27-1.51,.36-2.99,.54-4.44,.54-4.47,0-6.52-1.63-6.16-4.89l1.45-15.21c-16.18,7.73-28.62,11.59-37.31,11.59-10.99,0-16.48-5.92-16.48-17.75s5.89-21.01,17.66-28.98c11.77-7.97,25.87-15.15,42.29-21.56,.48-4.71,.84-9.48,1.09-14.31,0-.96,.06-2.17,.18-3.62,.12-1.45,.18-3.08,.18-4.89,0-2.29-.18-3.8-.54-4.53l-.54-.72h-.18c-1.81,0-5.19,2.48-10.14,7.43-4.47,4.35-10.02,10.87-16.66,19.56-.97,1.33-2.57,2.42-4.8,3.26-2.24,.85-4.5,1.27-6.79,1.27-1.69,0-3.11-.3-4.26-.91-1.15-.6-1.72-1.51-1.72-2.72,0-.97,.48-2.23,1.45-3.8,16.66-25.11,32.9-37.67,48.72-37.67,5.43,0,9.08,1.36,10.96,4.08Zm-58.41,84.32c0,4.83,2.35,7.24,7.06,7.24,2.78,0,6.16-.78,10.14-2.35,3.62-1.45,10.32-4.53,20.11-9.24,.24-3.02,.51-5.95,.81-8.79,.3-2.84,.57-5.4,.82-7.7l1.27-12.5c-8.33,3.98-14.55,7.13-18.66,9.42-6.04,3.5-10.87,6.79-14.49,9.87-3.62,3.08-5.86,6.73-6.7,10.96-.24,1.45-.36,2.48-.36,3.08Z"/><path class="cls-4" d="M462.7,311.59c2.9-1.63,5.86-2.45,8.88-2.45,3.74,0,5.55,1.39,5.43,4.17-2.05,39.85-6.4,80.96-13.04,123.35,1.93,.97,2.9,2.24,2.9,3.8,0,1.81-1.45,3.56-4.35,5.25l-1.09,6.7c-.48,2.29-2.2,4.26-5.16,5.89-2.96,1.63-5.89,2.44-8.79,2.44-1.81,0-3.26-.39-4.35-1.18-1.09-.78-1.45-1.96-1.09-3.53,0-.6,.06-1.03,.18-1.27-7.73,2.42-14.13,3.62-19.2,3.62-5.55,0-10.57-1.21-15.03-3.62-4.47-2.29-7.73-5.61-9.78-9.96-2.06-4.35-3.08-9.24-3.08-14.67,0-1.93,.24-4.59,.72-7.97,1.69-9.78,5.31-19.2,10.87-28.26,5.55-9.06,12.56-16.48,21.01-22.28,8.45-5.8,17.57-8.88,27.35-9.24,1.45-16.54,2.47-31.57,3.08-45.1,.12-2.17,1.63-4.08,4.53-5.71Zm-34.05,133.22c4.22,0,9.6-1.39,16.12-4.17,3.86-22.34,6.88-44.31,9.06-65.93h-.36c-6.52,0-12.5,2.24-17.93,6.7-5.43,4.47-9.93,10.02-13.49,16.66-3.56,6.64-6.01,13.22-7.34,19.74-.61,3.02-.91,5.98-.91,8.87,0,7.13,1.99,12.26,5.98,15.4,2.29,1.81,5.25,2.72,8.88,2.72Z"/><path class="cls-4" d="M534.42,346.63c11.59,0,22.1,7.79,31.52,23.36,.36,.48,.54,1.09,.54,1.81,0,1.33-.85,2.72-2.54,4.17-1.33,1.45-3.02,2.6-5.07,3.44-12.08,5.32-28.86,11.65-50.35,19.02-1.21,6.16-1.81,12.5-1.81,19.02,0,3.02,.06,5.19,.18,6.52,.24,5.43,1.33,10.14,3.26,14.13,.6,1.33,1.48,2.6,2.63,3.8,1.15,1.21,2.02,1.99,2.63,2.35,.36,.24,.97,.36,1.81,.36s1.84-.24,2.99-.72c1.15-.48,2.44-1.15,3.89-1.99,3.5-2.05,6.76-4.41,9.78-7.06,3.02-2.65,6.64-6.1,10.87-10.32,1.69-1.69,4.53-2.54,8.51-2.54,2.17,0,4.01,.33,5.52,1,1.51,.67,2.26,1.6,2.26,2.81,0,1.09-.61,2.29-1.81,3.62-7.49,8.09-15.16,14.97-23,20.65-7.85,5.67-15.7,8.51-23.55,8.51-3.74,0-7.24-.78-10.5-2.36-5.43-2.54-9.36-6.58-11.77-12.13-2.42-5.55-3.62-12.07-3.62-19.56,0-5.55,.72-12.07,2.17-19.56l-1.45,.36-1.45,.54c-1.81,.61-3.26,.91-4.35,.91-1.69,0-3.02-.42-3.98-1.27-.97-.84-1.45-1.93-1.45-3.26,0-1.57,.63-3.11,1.9-4.62,1.27-1.51,3.17-2.74,5.71-3.71l8.87-3.44c1.09-3.38,2.72-7.79,4.89-13.22,3.38-7.49,7.61-13.95,12.68-19.38,5.07-5.43,11.05-8.94,17.93-10.51,1.93-.48,3.98-.72,6.16-.72Zm-21.92,36.41c11.83-4.47,22.52-8.21,32.06-11.23-3.98-5.55-8.03-9.3-12.14-11.23-.85-.36-1.66-.6-2.45-.72-.79-.12-1.24-.18-1.36-.18,.12,.12,.03,.24-.27,.36-.3,.12-.57,.18-.81,.18-6.16,4.71-11.17,12.32-15.03,22.82Zm2.72-53.98c0-1.57,1.02-3.26,3.08-5.07,6.04-5.67,12.25-11.35,18.66-17.03,1.09-.97,2.51-1.78,4.26-2.45,1.75-.66,3.41-1,4.98-1,1.45,0,2.65,.24,3.62,.72,1.57,.72,2.35,1.75,2.35,3.08,0,1.69-.97,3.38-2.9,5.07-4.35,4.11-10.57,9.72-18.66,16.85-1.09,.97-2.51,1.78-4.26,2.44-1.75,.67-3.47,1-5.16,1-1.45,0-2.66-.24-3.62-.72-1.57-.72-2.35-1.69-2.35-2.9Z"/><path class="cls-4" d="M683.49,380.32c0,24.88,1.69,47.03,5.07,66.47,.48,2.78-.61,5.16-3.26,7.16-2.66,1.99-5.55,2.99-8.69,2.99-1.81,0-3.32-.42-4.53-1.27-1.21-.84-1.93-2.11-2.17-3.8-3.14-23.43-4.95-45.28-5.43-65.57-5.8,13.77-12.74,33.09-20.83,57.96-.12,.48-.48,1.15-1.09,1.99-1.09,1.45-2.72,2.6-4.89,3.44-2.17,.85-4.35,1.27-6.52,1.27-1.69,0-3.02-.24-3.98-.72-1.57-.84-2.35-1.99-2.35-3.44,0-.36,.12-1.02,.36-1.99,.12-1.33,.18-3.26,.18-5.8,0-4.23-.36-10.32-1.09-18.29l-.72-9.78c-.48-11.83-.91-20.71-1.27-26.63-5.8,10.63-10.39,18.48-13.77,23.55-2.9,15.34-7.73,30.19-14.49,44.56-.85,1.69-2.66,3.14-5.43,4.35-2.78,1.21-5.5,1.81-8.15,1.81-1.69,0-3.05-.3-4.08-.91-1.03-.6-1.54-1.45-1.54-2.54,0-.72,.18-1.51,.54-2.36,5.55-12.07,9.78-24.45,12.68-37.13-.48-.48-.72-1.15-.72-1.99,0-1.21,.48-2.47,1.45-3.8l.72-1.27c1.93-9.66,2.9-19.93,2.9-30.79,0-4.59-.18-9.12-.54-13.58-.12-2.05,1.27-3.92,4.17-5.61,2.9-1.69,5.86-2.54,8.88-2.54,1.69,0,3.08,.36,4.17,1.09,1.09,.72,1.69,1.75,1.81,3.08,.24,2.17,.48,5.68,.72,10.5,2.78-5.07,5.73-9.84,8.87-14.31,.24-2.05,1.69-3.83,4.35-5.34,2.65-1.51,5.43-2.26,8.33-2.26,1.81,0,3.35,.39,4.62,1.18,1.27,.79,1.96,2.02,2.08,3.71,1.21,15.58,2.05,29.46,2.54,41.66,8.09-19.8,16.12-36.16,24.09-49.09,.84-1.33,2.47-2.54,4.89-3.62,2.41-1.09,4.77-1.63,7.06-1.63,1.81,0,3.29,.43,4.44,1.27,1.15,.85,1.66,2.17,1.54,3.98-.61,12.68-.91,24.03-.91,34.05Z"/><path class="cls-4" d="M719.72,389.38c-.72,4.83-2.08,13.56-4.07,26.17-1.99,12.62-3.65,24.06-4.98,34.32-.36,2.29-1.96,4.26-4.8,5.89-2.84,1.63-5.71,2.44-8.6,2.44-1.93,0-3.41-.39-4.44-1.18-1.03-.78-1.42-1.96-1.18-3.53,2.05-12.07,4.26-25.87,6.61-41.39,2.35-15.52,4.01-26.6,4.98-33.24l3.8-24.82c.36-2.17,2.02-4.04,4.98-5.61,2.96-1.57,5.82-2.35,8.6-2.35,1.69,0,3.02,.36,3.98,1.09,.96,.72,1.33,1.75,1.09,3.08l-5.98,39.12Zm3.08-73.18c-2.66,0-5.01,.66-7.06,1.99-2.66,1.45-4.17,2.9-4.53,4.35-1.57,5.68-2.6,9.42-3.08,11.23v.54c0,.61,.24,1.18,.72,1.72,.48,.54,1.02,.94,1.63,1.18,.97,.48,2.05,.72,3.26,.72,1.93,0,4.26-.57,6.97-1.72,2.72-1.15,4.5-2.75,5.34-4.8,.72-2.05,1.75-5.67,3.08-10.87v-.36c0-.6-.24-1.24-.72-1.9-.48-.66-1.03-1.18-1.63-1.54-1.33-.36-2.66-.54-3.98-.54Z"/><path class="cls-4" d="M788.72,346.63c11.59,0,22.1,7.79,31.52,23.36,.36,.48,.54,1.09,.54,1.81,0,1.33-.85,2.72-2.54,4.17-1.33,1.45-3.02,2.6-5.07,3.44-12.08,5.32-28.86,11.65-50.35,19.02-1.21,6.16-1.81,12.5-1.81,19.02,0,3.02,.06,5.19,.18,6.52,.24,5.43,1.33,10.14,3.26,14.13,.6,1.33,1.48,2.6,2.63,3.8,1.15,1.21,2.02,1.99,2.63,2.35,.36,.24,.97,.36,1.81,.36s1.84-.24,2.99-.72c1.15-.48,2.44-1.15,3.89-1.99,3.5-2.05,6.76-4.41,9.78-7.06,3.02-2.65,6.64-6.1,10.87-10.32,1.69-1.69,4.53-2.54,8.51-2.54,2.17,0,4.01,.33,5.52,1,1.51,.67,2.26,1.6,2.26,2.81,0,1.09-.61,2.29-1.81,3.62-7.49,8.09-15.16,14.97-23,20.65-7.85,5.67-15.7,8.51-23.55,8.51-3.74,0-7.24-.78-10.5-2.36-5.43-2.54-9.36-6.58-11.77-12.13-2.42-5.55-3.62-12.07-3.62-19.56,0-5.55,.72-12.07,2.17-19.56l-1.45,.36-1.45,.54c-1.81,.61-3.26,.91-4.35,.91-1.69,0-3.02-.42-3.98-1.27-.97-.84-1.45-1.93-1.45-3.26,0-1.57,.63-3.11,1.9-4.62,1.27-1.51,3.17-2.74,5.71-3.71l8.87-3.44c1.09-3.38,2.72-7.79,4.89-13.22,3.38-7.49,7.61-13.95,12.68-19.38,5.07-5.43,11.05-8.94,17.93-10.51,1.93-.48,3.98-.72,6.16-.72Zm-21.92,36.41c11.83-4.47,22.52-8.21,32.06-11.23-3.98-5.55-8.03-9.3-12.14-11.23-.85-.36-1.66-.6-2.45-.72-.79-.12-1.24-.18-1.36-.18,.12,.12,.03,.24-.27,.36-.3,.12-.57,.18-.81,.18-6.16,4.71-11.17,12.32-15.03,22.82Z"/></g><g><path class="cls-1" d="M611.96,139.58c.47,3.61-.03,5.13-3.43,6.08-4.66,1.3-5.76,3.94-5.53,8.55,.43,8.68-.07,17.41,.18,26.1,.21,7.2-2.87,12.53-8.32,16.78-6.9,5.38-14.88,8.63-23.22,10.76-33.91,8.68-67.84,8.84-101.71-.36-2.72-.74-5.34-1.85-8.02-2.76-2.85-.97-4.59-2.59-3.76-5.91,.07-.27-.3-.65-.46-.97,2.95-2.05,6.01-2.09,9.17-.53,3.23,1.62,6.72,2.48,10.19,3.31,17.94,4.27,36.1,5.75,54.54,4.75,12.87-.69,25.57-2.25,37.97-5.81,7.4-2.12,14.52-4.88,20.64-9.72,2.54-2.01,4.38-4.51,4.4-7.9,.04-6.43-.03-12.87-.06-19.3,.03-2.55,.07-5.1,.08-7.65,.01-3.23,0-3.25-2.95-2-16.08,6.81-32.15,13.64-48.23,20.44-14.04,5.94-28.24,6.4-42.38,.59-16.85-6.92-33.59-14.09-50.33-21.28-2.34-1-2.6-.49-2.59,1.75,.08,12.57,.05,25.15,.05,37.72,0,5.58,.05,11.17-.01,16.75-.02,1.39,.36,2.1,1.7,2.79,4.88,2.49,7.4,6.59,7.42,12.11,.03,8.8,.03,17.6,0,26.4-.01,3.38-1.49,4.92-4.78,4.95-5.68,.05-11.36,.05-17.03,0-3.3-.03-4.87-1.58-4.89-4.89-.04-8.89-.1-17.79,.02-26.68,.07-5.35,2.63-9.42,7.4-11.86,1.34-.68,1.69-1.41,1.69-2.79-.04-19.59-.05-39.18,.01-58.76,0-1.69-.56-2.42-2.09-3.06-18.25-7.67-36.48-15.41-54.7-23.17-5.75-2.45-8.23-7.67-6.31-13.07,1.12-3.16,3.47-5.01,6.5-6.29,19.63-8.28,39.24-16.63,58.86-24.95,19.88-8.43,39.69-17.03,59.67-25.21,13.16-5.38,26.7-5.39,39.8,.1,39.57,16.57,79.02,33.44,118.54,50.14,3.47,1.46,5.41,4.09,6.78,7.36v5.11c-1.93,4.37-5.66,6.41-9.88,8.11-9.26,3.75-18.39,7.78-27.59,11.68-3.65,1.55-4.8,1.27-7.36-1.68-.46-3.09,.85-4.98,3.75-6.12,4.57-1.8,9.05-3.81,13.57-5.73,5.65-2.4,11.32-4.75,16.94-7.21,2.36-1.03,2.68-2.42,.83-3.34-2.59-1.28-5.15-2.78-8.11-3.15-.49-.8-1.36-.96-2.13-1.29-34.86-14.81-69.76-29.53-104.56-44.48-13.08-5.62-26.05-6.52-39.28-.9-26.43,11.22-52.87,22.42-79.29,33.66-9.99,4.25-19.94,8.58-29.91,12.87-2.68,.65-5.08,2.02-7.61,3.06-.71,.29-1.41,.72-1.46,1.58-.06,1.02,.75,1.44,1.53,1.82,.51,.25,1.03,.48,1.55,.7,18.6,7.89,37.21,15.78,55.8,23.68,.89,.38,1.68,.68,2.69,.22,3.08-1.4,6.21-2.7,9.32-4.04,2.7-.6,5.13-1.91,7.66-2.94,12.77-5.2,25.54-10.41,38.3-15.66,1.01-.42,2.4-.46,2.12-2.39-.68-4.71,1.54-8.23,5.2-10.9,6.9-5.04,17.78-5.08,24.85-.18,7.52,5.21,7.58,14.49-.05,19.53-7.13,4.71-14.71,4.8-22.4,1.3-1.2-.55-2.23-1.19-3.71-.58-12.98,5.42-25.99,10.76-38.99,16.13-3.89,1.54-7.78,3.07-12.13,4.79,1.07,.52,1.56,.79,2.07,1.01,14.34,6.08,28.73,12.02,42.99,18.26,13.3,5.82,26.4,5.84,39.74,.06,20.96-9.08,42.03-17.87,63.05-26.81,4.1-1.74,5.08-1.61,7.7,1.29Zm-163.17,94.69c0-3.12,.01-6.23,0-9.35-.02-3.91-1.69-6.04-4.75-6.07-3.13-.03-4.92,2.21-4.93,6.24-.01,4.72-.06,9.44,.02,14.16,.04,2.42-1.09,5.72,.49,7.02,1.5,1.22,4.68,.26,7.11,.48,1.92,.18,2.14-.7,2.09-2.29-.1-3.4-.03-6.8-.03-10.2Zm72.8-115.08c2.42-.11,5.32-.47,7.72-2.43,1.83-1.5,1.8-3.23,.03-4.78-3.55-3.1-12.05-3.15-15.73-.1-1.93,1.6-1.96,3.4,0,4.96,2.17,1.73,4.76,2.19,7.99,2.35Z"/><path class="cls-4" d="M466.86,197.34c-3.15-1.56-6.22-1.53-9.17,.53-2.89-.75-5.06-2.72-7.41-4.39-.66-.47-1.07-1.37-2.08-1.25,0-12.57,.03-25.15-.05-37.72-.01-2.24,.25-2.75,2.59-1.75,16.73,7.19,33.48,14.36,50.33,21.28,14.14,5.81,28.34,5.35,42.38-.59,16.08-6.8,32.15-13.63,48.23-20.44,2.95-1.25,2.96-1.23,2.95,2,0,2.55-.05,5.1-.08,7.65-2.51-.18-4.5,1.25-6.65,2.16-13.38,5.66-26.75,11.33-40.12,17-14.06,5.96-28.45,7.41-43.29,3.3-8.59-2.38-16.48-6.49-24.67-9.86-6.07-2.49-12.87,1.61-12.92,8.16-.03,4.64-.02,9.27-.03,13.91Z"/><path class="cls-4" d="M611.96,139.58c-2.62-2.91-3.6-3.04-7.7-1.29-21.02,8.93-42.09,17.73-63.05,26.81-13.34,5.78-26.43,5.76-39.74-.06-14.26-6.24-28.66-12.18-42.99-18.26-.51-.22-1.01-.49-2.07-1.01,4.35-1.72,8.24-3.26,12.13-4.79,.82,1.01,2.03,1.31,3.15,1.78,10.41,4.39,20.87,8.69,31.23,13.22,10.47,4.57,21.25,5.43,31.93,1.78,13.45-4.6,26.29-10.84,39.38-16.39,24.89-10.55,49.79-21.06,74.69-31.58,2.97,.36,5.52,1.87,8.11,3.15,1.85,.91,1.52,2.31-.83,3.34-5.62,2.46-11.29,4.81-16.94,7.21-4.52,1.92-9,3.93-13.57,5.73-2.9,1.14-4.21,3.03-3.75,6.12-3.23,1.66-6.57,3.05-9.98,4.26Z"/><path class="cls-2" d="M648.92,109.78c-24.9,10.52-49.8,21.03-74.69,31.58-13.09,5.55-25.93,11.79-39.38,16.39-10.68,3.65-21.47,2.79-31.93-1.78-10.36-4.53-20.81-8.83-31.23-13.22-1.12-.47-2.33-.77-3.15-1.78,13-5.37,26.01-10.71,38.99-16.13,1.48-.62,2.5,.03,3.71,.58,7.69,3.5,15.27,3.41,22.4-1.3,7.64-5.04,7.57-14.32,.05-19.53-7.07-4.9-17.94-4.86-24.85,.18-3.66,2.67-5.88,6.19-5.2,10.9,.28,1.93-1.11,1.97-2.12,2.39-12.75,5.25-25.52,10.46-38.3,15.66-2.53,1.03-4.96,2.34-7.66,2.94-.24-.81-.89-1.17-1.6-1.48-6.49-2.75-12.98-5.5-19.47-8.25-13.58-5.76-27.17-11.53-40.75-17.29,9.97-4.29,19.92-8.62,29.91-12.87,26.42-11.24,52.86-22.44,79.29-33.66,13.23-5.62,26.2-4.72,39.28,.9,34.8,14.95,69.7,29.67,104.56,44.48,.77,.33,1.64,.5,2.13,1.29Z"/><path class="cls-2" d="M466.86,197.34c.01-4.64,0-9.27,.03-13.91,.04-6.54,6.85-10.65,12.92-8.16,8.19,3.36,16.08,7.48,24.67,9.86,14.84,4.11,29.23,2.66,43.29-3.3,13.37-5.67,26.74-11.34,40.12-17,2.15-.91,4.14-2.34,6.65-2.16,.02,6.43,.1,12.87,.06,19.3-.02,3.39-1.87,5.89-4.4,7.9-6.12,4.84-13.24,7.6-20.64,9.72-12.4,3.56-25.1,5.12-37.97,5.81-18.43,.99-36.6-.49-54.54-4.75-3.47-.83-6.96-1.69-10.19-3.31Z"/><path class="cls-4" d="M393.74,109.63c13.58,5.76,27.17,11.53,40.75,17.29,6.49,2.75,12.98,5.5,19.47,8.25,.71,.3,1.36,.67,1.6,1.48-3.11,1.34-6.24,2.64-9.32,4.04-1.01,.46-1.8,.16-2.69-.22-18.6-7.9-37.2-15.79-55.8-23.68-.52-.22-1.04-.46-1.55-.7-.78-.38-1.59-.8-1.53-1.82,.05-.85,.75-1.29,1.46-1.58,2.53-1.03,4.92-2.4,7.61-3.06Z"/><path class="cls-3" d="M448.79,234.27c0,3.4-.07,6.8,.03,10.2,.05,1.59-.17,2.46-2.09,2.29-2.42-.22-5.61,.74-7.11-.48-1.59-1.29-.45-4.6-.49-7.02-.08-4.72-.03-9.44-.02-14.16,.01-4.03,1.79-6.27,4.93-6.24,3.06,.03,4.73,2.16,4.75,6.07,.02,3.12,0,6.23,0,9.35Z"/></g></svg>