<?xml version="1.0" standalone="no"?>
<!DOCTYPE svg PUBLIC "-//W3C//DTD SVG 20010904//EN"
 "http://www.w3.org/TR/2001/REC-SVG-20010904/DTD/svg10.dtd">
<svg version="1.0" xmlns="http://www.w3.org/2000/svg"
 width="700.000000pt" height="700.000000pt" viewBox="0 0 700.000000 700.000000"
 preserveAspectRatio="xMidYMid meet">
<metadata>
Created by potrace 1.14, written by Peter Selinger 2001-2017
</metadata>
<g transform="translate(0.000000,700.000000) scale(0.100000,-0.100000)"
fill="#000000" stroke="none">
<path d="M3400 5579 c-129 -21 -187 -40 -395 -125 -99 -41 -189 -79 -200 -83
-35 -15 -80 -34 -495 -211 -223 -95 -423 -180 -445 -190 -22 -9 -310 -132
-640 -271 -534 -226 -605 -258 -641 -294 -62 -62 -78 -160 -39 -235 33 -64 85
-92 481 -259 214 -90 407 -172 429 -182 22 -10 112 -48 200 -85 88 -36 167
-73 175 -81 13 -12 15 -97 16 -641 0 -345 -3 -636 -7 -647 -4 -11 -29 -35 -56
-52 -56 -36 -98 -91 -115 -149 -12 -42 -18 -564 -7 -648 10 -83 17 -86 267
-86 216 0 242 4 269 39 10 12 13 100 12 347 0 324 0 331 -23 380 -29 60 -47
81 -111 126 l-50 35 -3 192 c-2 152 0 191 10 185 7 -4 36 -24 63 -45 28 -20
69 -46 93 -58 36 -19 42 -25 38 -48 -9 -49 17 -78 101 -111 43 -17 94 -35 113
-41 65 -19 155 -42 185 -47 17 -3 44 -9 60 -14 26 -8 54 -13 175 -35 227 -39
367 -50 670 -50 343 0 374 3 750 61 77 12 300 66 393 95 250 77 450 209 520
344 39 77 44 125 42 470 -2 405 -2 404 109 446 64 25 89 62 76 111 -5 16 -5
26 0 23 5 -3 54 14 109 39 l100 44 21 -23 c31 -33 65 -36 129 -10 48 19 337
141 426 180 17 7 59 25 95 40 149 61 217 108 245 170 22 47 13 133 -17 180
-14 22 -36 48 -49 59 -22 19 -118 64 -244 116 -16 7 -178 75 -360 152 -181 77
-478 203 -660 280 -181 77 -343 145 -360 153 -16 7 -145 61 -285 120 -140 58
-268 112 -285 120 -167 75 -415 171 -493 192 -103 27 -299 38 -392 22z m241
-1234 c77 -28 108 -75 76 -117 -60 -78 -271 -84 -346 -9 -63 63 26 140 165
141 34 0 81 -7 105 -15z"/>
</g>
</svg>
