<?xml version="1.0" encoding="UTF-8"?><svg id="Calque_1" xmlns="http://www.w3.org/2000/svg" viewBox="0 0 512 512"><defs><style>.cls-1{fill:#6c5bd9;}</style></defs><path class="cls-1" d="M496.63,204.14c-2.47,7.01-7.66,10.84-14.43,13.57-15.95,6.43-31.67,13.42-47.55,20.02-2.2,.91-5.21,1.85-7.09,1.03-2.16-.94-4.32-3.59-4.95-5.91-.91-3.37,1.43-5.83,4.65-7.19,10.07-4.28,20.13-8.6,30.2-12.88,6.76-2.88,13.58-5.62,20.26-8.67,1.79-.82,3.15-2.55,4.71-3.87-1.5-1.2-2.82-2.81-4.53-3.54-39.4-16.81-78.85-33.52-118.28-50.24-24.47-10.38-48.91-20.82-73.41-31.11-20.04-8.41-40.23-8.5-60.25-.03-63.79,26.98-127.52,54.1-191.27,81.16-.72,.31-1.54,.49-2.13,.95-1.04,.81-2.85,1.99-2.71,2.68,.25,1.22,1.52,2.66,2.72,3.19,10.3,4.53,20.69,8.87,31.05,13.27,21.01,8.92,42.01,17.87,63.05,26.7,1.56,.65,3.76,1.07,5.22,.48,31.6-12.77,63.13-25.69,94.62-38.57-2.04-17.13,12.22-26.24,28.05-26.82,8.19-.3,15.89,1.42,22.59,6.39,11.37,8.43,11.49,23.27-.18,31.3-12.13,8.35-25.12,8.36-38.37,2.37-1.64-.74-4.02-1.2-5.57-.58-27.55,11.11-55.02,22.4-82.5,33.67-.42,.17-.78,.49-1.68,1.07,3.03,1.36,5.72,2.63,8.45,3.79,22.45,9.53,44.93,18.99,67.36,28.57,20.64,8.81,41.29,9.05,61.98,.28,35.41-15,70.81-30.03,106.22-45.05,6.97-2.96,10.86-2.24,12.79,2.36,1.86,4.43-.26,7.59-7.05,10.53-.86,.37-1.7,.84-2.59,1.09-3.63,.99-4.94,3.03-4.87,7.03,.28,15.97-.22,31.96,.23,47.92,.34,12.1-4.63,21.11-13.86,28.25-10.83,8.37-23.23,13.63-36.28,17.09-57.83,15.37-115.66,15.54-173.36-.86-4.05-1.15-8.01-2.67-11.9-4.31-4.31-1.81-5.88-5.24-4.51-8.99,1.47-4.02,5.14-5.79,9.57-4.03,17.74,7.04,36.22,10.96,55.09,13,42.57,4.6,84.78,3.37,125.87-9.95,9.24-2.99,17.92-8.03,26.39-12.94,6.31-3.65,9.12-9.64,8.91-17.42-.43-15.31-.13-30.65-.13-46.61-2.29,.91-4.15,1.61-5.97,2.38-26.49,11.21-52.95,22.5-79.47,33.64-24.37,10.23-48.7,9.76-72.95-.61-26.02-11.12-52.08-22.15-78.13-33.21-1.69-.72-3.44-1.32-5.74-2.19v4.98c0,29.44,.04,58.89-.06,88.33-.01,3.17,.81,4.88,3.8,6.48,7.32,3.9,11.19,10.39,11.27,18.74,.14,14.88,.1,29.76,.03,44.63-.03,5.45-2.6,7.91-8.17,7.96-9.24,.08-18.48,.08-27.72,0-5.71-.05-8.25-2.61-8.28-8.42-.06-14.56-.15-29.13,.03-43.69,.11-8.86,4.39-15.38,12.07-19.88,1.38-.81,2.81-2.93,2.81-4.46,.16-32.57,.06-65.15,.21-97.72,.02-3.22-1.77-3.85-3.97-4.78-29.94-12.68-59.89-25.37-89.8-38.12-9.79-4.18-13.95-12.93-10.58-21.96,1.94-5.2,5.94-8.15,10.93-10.26,42.62-18.02,85.21-36.14,127.81-54.21,21.16-8.98,42.36-17.85,63.47-26.93,24.43-10.5,48.89-10.85,73.38-.48,64.07,27.12,128.08,54.37,192.18,81.42,6.07,2.56,10,6.65,12.29,12.63v7.52ZM119.88,419.09h15.96c0-12.96,.11-25.62-.06-38.27-.06-4.51-3.67-7.59-7.97-7.53-4.4,.07-7.82,3.36-7.88,8.23-.15,12.35-.05,24.71-.05,37.56ZM255.85,191.37c-4.46,1.74-8.88,2.88-12.66,5.1-3.61,2.12-3.29,5.32,0,8.04,6.09,5.04,19.41,5.09,25.64,.08,3.47-2.79,3.72-6.16-.15-8.34-3.82-2.16-8.27-3.21-12.82-4.88Z"/></svg>