<?xml version="1.0" encoding="UTF-8"?><svg id="Calque_1" xmlns="http://www.w3.org/2000/svg" viewBox="0 0 512 512"><defs><style>.cls-1{fill:#6c5bd9;}</style></defs><path class="cls-1" d="M482.99,214.6c-1.21-1.49-2.73-2.78-4.25-3.97-69.44-54.36-115.28-93.16-184.76-147.47-8.7-6.8-22.58-12.61-36.96-12.61-12.24,0-18.2,2.78-24.3,5.31-17.3,7.2-34.23,22.3-48.8,33.9-16.54,13.16-32.98,26.46-49.39,39.79-32.82,26.66-65.53,53.45-98.79,79.56-3.34,2.62-7.47,6.6-9.2,11-1.07,2.73-1.22,5.61,.32,8.44,1.12,2.05,2.9,3.88,4.83,5.18,3.78,2.56,8.45,3.16,12.92,3.04,9.43-.27,18.87-.06,28.31-.06h10.15v6.36c0,64.4,0,128.81,0,193.21,0,15.06,7.28,22.34,22.3,22.35,30.7,.01,61.41,.01,92.11,0,15.08,0,22.4-7.27,22.41-22.25,.02-27.41,0-54.82,.02-82.23,0-1.72,.19-3.44,.29-5.18h72.26v5.57c0,27.71-.04,55.42,.02,83.12,.03,12.71,7.46,20.84,19.63,20.9,32.5,.17,65,.07,97.5,.05,6.18,0,11.37-2.27,15.36-7.08,3.67-4.43,4.34-9.67,4.33-15.19-.02-35.34-.01-61.95-.01-97.29-.16-2.08-.95-3.96-2.17-5.63-.65-.9-1.28-1.73-2.22-2.36-.74-.5-1.55-.88-2.37-1.23-1.23-.52-2.5-.97-3.81-1.27-.79-.18-1.51-.29-2.3-.16-2.37,.39-4.79,1.55-6.51,3.24-1.8,1.77-3.31,4.11-3.63,6.66-.03,.2-.03,.38-.03,.58v.72c0,.4,0,.79,0,1.19v1.62c0,.67,0,1.34,0,2.02,0,.79,0,1.59,0,2.38v2.72c0,1.01,0,2.02,0,3.03v3.3c0,1.18,0,2.36,0,3.54,0,1.25,0,2.5,0,3.75s0,2.62,0,3.93,0,2.72,0,4.08,0,2.8,0,4.19,0,2.85,0,4.28,0,2.89,0,4.33,0,2.9,0,4.35,0,2.9,0,4.34,0,2.87,0,4.3,0,2.82,0,4.23v4.12c0,1.33,0,2.66,0,3.99,0,1.27,0,2.55,0,3.82,0,1.21,0,2.41,0,3.62,0,1.13,0,2.26,0,3.39v3.13c0,.95,0,1.89,0,2.84v2.51c0,.72,0,1.44,0,2.16v1.77c0,.45,0,.9,0,1.35v.9c0,.14,0,.28,0,.44-30.18,0-60.36,0-90.53,.01-.2-29.05-.39-58.11-.59-87.16-.04-6.08-.37-12.87-4.76-17.09-3.96-3.8-9.96-4.26-15.45-4.46-25.82-.95-51.68-.96-77.51,0-5.46,.2-11.44,.65-15.39,4.43-4.4,4.21-4.74,11.01-4.78,17.1-.21,29.11-.42,58.21-.63,87.32-30.14,0-60.29-.02-90.43-.03-.07-65.41-.14-130.83-.21-196.24,0-5.21-.08-10.69-2.63-15.23-6.35-11.29-23.23-8.99-34.14-9.33l-.26-.98c0-2.23,7.07-6.83,10.46-9.63,23.58-19.5,47.27-38.85,71.08-58.07,23.69-19.12,47.45-38.15,71.39-56.96,8.97-7.08,18.58-14.4,29.93-15.77,16.73-2.02,31.85,9.25,44.92,19.9,49.41,40.24,147.42,113.76,148.23,120.71,.96,8.33-30.35-.03-35.74,8.14-3.75,5.69-2.91,14.14-2.91,20.95,0,19.45,0,32.34,0,51.78,0,1.17,.46,2.27,.8,3.36s.79,2.11,1.57,2.92c1.06,1.09,2.34,1.96,3.72,2.6,.83,.39,1.7,.7,2.58,.94,.83,.23,1.72,.48,2.59,.48,1.66,0,3.3-.39,4.84-1s3-1.38,4.17-2.45c.31-.28,.59-.58,.84-.91,.49-.65,.88-1.37,1.17-2.13,.36-.92,.75-2.08,.75-3.08,0-19.73,0-32.92,0-52.65,0-1.88-.42-2.54,0-5.98,.37-2.99,21.04,.05,31.2-.02,4.78-.03,9.63,.14,14.34-.56,10.67-1.58,14.96-13.16,8.16-21.52Z"/></svg>