<?xml version="1.0" encoding="UTF-8"?><svg id="Calque_1" xmlns="http://www.w3.org/2000/svg" viewBox="0 0 512 512"><defs><style>.cls-1{stroke:#6c5bd9;stroke-miterlimit:10;stroke-width:5px;}.cls-1,.cls-2{fill:#6c5bd9;}</style></defs><path class="cls-1" d="M432.97,139.78c-7.59-11.48-26.19-.73-18.54,10.84,27.95,42.28,38.45,94.06,26.75,143.66-9.35,39.6-31.89,74.74-63.03,100.47-10.76-40.46-39.85-73.68-80.36-88.16-46.46-16.61-100.44-3.17-134.02,32.84-14.79,15.87-24.71,34.74-30.01,55.27-58.65-48.72-82.99-129.64-57.22-202.78,24.45-69.41,91.33-118.49,164.33-123.8,49.5-3.6,98.92,11.48,137.43,42.92,10.62,8.67,25.9-6.44,15.18-15.19-72.22-58.98-177.07-66.53-255.41-14.61C67.12,128.25,30.76,214.99,49.71,298.41c5.32,23.43,15.12,45.75,28.35,65.78,12.9,19.51,29.75,39.47,49.31,52.56,21.52,14.4,44.8,26.62,69.78,33.74,19.11,5.44,38.97,8.16,58.83,8.16,9.79,0,19.59-.44,29.32-1.52,8.53-.95,17.01-2.39,25.35-4.44,7.58-1.87,15.03-4.24,22.28-7.13,6.95-2.77,13.72-5.99,20.29-9.58,4.88-2.67,9.69-5.47,14.47-8.31s9.5-5.34,13.84-8.49c4.06-2.95,7.84-6.26,11.79-9.35,4.11-3.21,7.93-6.91,11.66-10.56,3.04-2.97,5.99-6.03,8.85-9.17,5.95-6.54,11.5-13.44,16.6-20.67,5.09-7.22,9.72-14.76,13.85-22.57,4.14-7.84,7.76-15.95,10.82-24.27,2.72-7.38,4.99-14.93,6.8-22.59,12.98-54.98,2.19-113.18-28.91-160.21ZM152.28,409.45c8.05-50.15,52.57-88.57,103.71-88.5,51.17,.06,95.69,38.3,103.72,88.57-28.93,18.93-56.43,29.8-103.72,29.8-37.1,0-72.8-10.32-103.71-29.87Z"/><path class="cls-2" d="M255.98,280.55c-38.55,0-69.92-31.37-69.92-69.92s31.37-69.92,69.92-69.92,69.92,31.37,69.92,69.92-31.37,69.92-69.92,69.92Zm0-120.52c-27.9,0-50.59,22.7-50.59,50.59s22.7,50.59,50.59,50.59,50.59-22.7,50.59-50.59-22.7-50.59-50.59-50.59Z"/></svg>