<?xml version="1.0" encoding="UTF-8"?><svg id="Calque_1" xmlns="http://www.w3.org/2000/svg" viewBox="0 0 512 512"><defs><style>.cls-1{fill:#fff;}.cls-2{fill:#333;}</style></defs><circle class="cls-2" cx="256" cy="252.6" r="189.96"/><g><path class="cls-1" d="M299.65,343.97c8.29-4.94,16.55-9.27,24.19-14.51,23.54-16.16,41.6-36.92,50.63-64.42,7.37-22.45,7.89-45.15-1.7-67.13-8.5-19.48-22.33-33-44.53-36.2-31.13-4.49-58.16,23.46-52.41,54.49,4.26,22.96,22.92,38.56,46.94,39.33,7.1,.23,13.88-.9,20.68-4.32-4.93,35.67-26.41,58.32-56.17,74.88,4.06,5.86,7.97,11.52,12.38,17.88Zm-90.16-92.74c-4.9,35.63-26.38,58.28-56.17,74.86,4.09,5.91,8.01,11.56,12.07,17.41,3.02-1.52,5.93-2.89,8.76-4.43,27.02-14.61,48.85-34.46,61.89-62.73,11.23-24.35,13.47-49.62,4.16-75-6.04-16.47-16.22-30.16-33.57-36.43-37.17-13.44-65.21,11.98-65.31,44.47-.07,24.93,21.5,45.34,47.5,46.14,7.11,.22,13.91-.92,20.66-4.31Z"/><path class="cls-1" d="M299.65,343.97c-4.4-6.36-8.32-12.01-12.38-17.88,29.76-16.56,51.24-39.2,56.17-74.88-6.79,3.42-13.58,4.55-20.68,4.32-24.02-.77-42.69-16.37-46.94-39.33-5.75-31.03,21.28-58.99,52.41-54.49,22.2,3.2,36.03,16.72,44.53,36.2,9.59,21.97,9.07,44.67,1.7,67.13-9.03,27.5-27.09,48.25-50.63,64.42-7.64,5.24-15.9,9.58-24.19,14.51Z"/><path class="cls-1" d="M209.49,251.23c-6.75,3.39-13.55,4.53-20.66,4.31-26-.8-47.57-21.21-47.5-46.14,.09-32.49,28.14-57.91,65.31-44.47,17.34,6.27,27.52,19.95,33.57,36.43,9.31,25.38,7.07,50.66-4.16,75-13.04,28.27-34.88,48.12-61.89,62.73-2.83,1.53-5.75,2.91-8.76,4.43-4.05-5.85-7.97-11.5-12.07-17.41,29.79-16.59,51.27-39.24,56.17-74.86Z"/></g></svg>